<?xml version="1.0" encoding="utf-8"?>
<!-- Generator: Adobe Illustrator 20.1.0, SVG Export Plug-In . SVG Version: 6.00 Build 0)  -->
<svg version="1.1" id="Layer_1" xmlns="http://www.w3.org/2000/svg" xmlns:xlink="http://www.w3.org/1999/xlink" x="0px" y="0px"
	 viewBox="0 0 150 150" style="enable-background:new 0 0 150 150;" xml:space="preserve">
<style type="text/css">
	.st0{fill:#D2B48C;stroke:#D2B48C;stroke-width:0.1;stroke-linecap:round;stroke-linejoin:round;stroke-miterlimit:10;}
</style>
<g>
	<path class="st0" d="M64.9,80.7l-0.7,7c0.8,0.5,1.7,0.9,2.7,1.2c2.4,0.8,5,1.2,7.8,1.2c2.8,0,5.3-0.8,7.3-2.3c2-1.5,3-3.7,3-6.4
		s-0.9-4.8-2.6-6.4c-0.9-0.8-1.7-1.4-2.5-1.9c-0.8-0.5-1.9-1.1-3.4-1.9c-0.1,0-0.7-0.3-1.9-0.9c-1.2-0.6-2.3-1.3-3.4-2
		c-1.5-1.2-2.3-2.5-2.3-4.1c0-1.6,0.5-2.9,1.5-3.7c1-0.9,2.3-1.3,4.1-1.3c1.7,0,3.4,0.3,5,1c0.4,1.4,0.6,2.2,0.6,2.5v1.8l2.7,0.3
		l0.6-6.7c-3.9-1-7.1-1.5-9.7-1.5c-2.6,0-4.8,0.7-6.6,2.2c-1.8,1.5-2.8,3.4-2.8,5.8s0.7,4.3,2,5.6c1.4,1.4,3.3,2.6,5.8,3.8
		c0.1,0,0.2,0.1,0.3,0.1l2,1c1.3,0.6,2.4,1.3,3.4,2.1c1.5,1.2,2.3,2.6,2.3,4.3c0,1.7-0.5,3.1-1.6,4.1c-1.1,1-2.6,1.5-4.5,1.5
		c-1.9,0-3.9-0.4-5.8-1.2c-0.3-1.5-0.5-2.5-0.5-3v-2.2L64.9,80.7z"/>
	<path class="st0" d="M113,33.9c0-0.5-0.6-0.7-0.9-0.4l-7,7.1c-9-7.8-18.1-11.3-29.4-11.3c-24.2,0-43.9,19.7-43.9,43.9
		c0,24.1,19.7,43.7,43.9,43.7c11.4,0,21.6-4.1,29.5-11.8c0.3-0.3,0.5-0.8,0.5-1.2c0-0.3-0.1-0.5-0.3-0.7l-5.7-5.5
		c-0.1-0.1-0.4-0.3-0.7-0.3c-0.3,0-0.7,0.1-1,0.4c-5.7,4.4-12.3,8.4-22,8.4C58,106.3,43.5,91.4,43.5,73c0-18.4,14.5-33.4,32.2-33.4
		c7.6,0,15.8,3.1,22,8.4L93.8,52c-0.3,0.3-0.1,0.9,0.4,0.9l18.4-0.2c0.3,0,0.5-0.3,0.5-0.6L113,33.9z"/>
</g>
</svg>
